<?xml version="1.0" standalone="no"?><!DOCTYPE svg PUBLIC "-//W3C//DTD SVG 1.1//EN" "http://www.w3.org/Graphics/SVG/1.1/DTD/svg11.dtd"><svg class="icon" width="200px" height="200.00px" viewBox="0 0 1024 1024" version="1.1" xmlns="http://www.w3.org/2000/svg"><path fill="#595959" d="M763.904 950.857H260.096c-62.098 0.512-112.86-43.447-113.518-98.304v-320.95c-4.535-53.395 40.74-99.987 101.23-104.01 2.56-0.22 5.12-0.292 7.753-0.292h34.012a121.344 121.344 0 0 1-4.535-40.229v-40.229c0-110.738 101.668-200.557 226.962-200.557 125.367 0 226.962 89.82 226.962 200.557v40.229c0.732 13.531-0.731 27.063-4.535 40.229h29.477c62.098-0.586 112.86 43.446 113.518 98.304v318.902c4.535 53.395-40.74 99.987-101.23 104.01-2.56 0.219-5.12 0.292-7.753 0.292h-4.535v2.048zM468.846 700.27v90.258c-1.829 22.162 17.042 41.472 42.057 43.081 25.088 1.61 46.884-14.994 48.713-37.156a35.547 35.547 0 0 0 0-5.852v-90.55c29.038-13.898 46.592-41.107 45.495-70.218-0.951-44.324-42.423-79.506-92.526-78.628-48.786 0.804-88.064 35.547-89.015 78.628-1.097 29.111 16.53 56.32 45.495 70.217l-0.22 0.147z m181.613-351.086c0-66.414-61-120.32-136.192-120.32S378.075 282.77 378.075 349.257v80.092H650.46v-80.092z" /></svg>